<?xml version="1.0" standalone="no"?>
<!DOCTYPE svg PUBLIC "-//W3C//DTD SVG 20010904//EN"
 "http://www.w3.org/TR/2001/REC-SVG-20010904/DTD/svg10.dtd">
<svg version="1.0" xmlns="http://www.w3.org/2000/svg"
 width="1024.000000pt" height="1024.000000pt" viewBox="0 0 1024.000000 1024.000000"
 preserveAspectRatio="xMidYMid meet">
<metadata>
Created by potrace 1.11, written by Peter Selinger 2001-2013
</metadata>
<g transform="translate(0.000000,1024.000000) scale(0.100000,-0.100000)"
fill="#000000" stroke="none">
<path d="M5087 10204 c-1 -1 -83 -4 -182 -8 -160 -5 -300 -16 -405 -31 -19 -2
-55 -7 -80 -10 -68 -9 -171 -26 -240 -40 -14 -3 -37 -7 -53 -10 -404 -74 -861
-231 -1277 -439 -210 -105 -326 -172 -530 -305 -58 -38 -341 -241 -350 -251
-3 -3 -30 -25 -60 -50 -30 -25 -68 -57 -85 -71 -16 -15 -55 -48 -85 -74 -64
-55 -250 -236 -330 -321 -401 -425 -732 -933 -964 -1477 -79 -184 -127 -316
-206 -571 -23 -74 -95 -368 -104 -426 -3 -19 -8 -46 -11 -60 -13 -62 -42 -243
-49 -310 -28 -257 -35 -378 -36 -610 0 -246 14 -511 35 -650 2 -14 7 -45 10
-70 12 -91 67 -388 90 -480 98 -409 254 -826 438 -1170 33 -63 67 -126 74
-140 92 -177 384 -599 521 -755 10 -11 44 -51 77 -90 71 -82 73 -85 191 -206
201 -207 402 -383 617 -541 40 -29 74 -55 77 -58 11 -11 241 -161 335 -218
192 -116 407 -226 622 -318 18 -8 48 -20 65 -28 178 -77 633 -222 788 -250 14
-2 32 -7 40 -10 26 -10 305 -58 440 -76 128 -17 137 -18 240 -25 52 -3 115 -8
140 -11 54 -5 507 -5 570 0 25 2 83 7 130 10 47 4 96 8 110 11 14 2 50 7 80
10 30 3 66 7 80 9 14 3 48 7 75 11 41 5 222 38 335 61 140 28 537 145 660 194
544 218 872 396 1274 694 126 94 116 85 276 221 105 89 405 383 490 480 635
725 1046 1573 1204 2485 23 135 29 169 41 268 32 269 45 651 30 897 -6 102
-15 215 -20 255 -2 19 -7 58 -10 85 -10 86 -31 224 -51 330 -58 319 -193 765
-318 1050 -141 319 -348 696 -490 890 -23 30 -61 83 -86 118 -39 55 -186 244
-200 257 -3 3 -34 39 -70 80 -104 121 -317 339 -400 410 -14 12 -43 38 -65 59
-47 43 -225 188 -310 253 -341 257 -775 502 -1150 650 -55 22 -109 43 -120 48
-55 25 -416 140 -485 155 -8 2 -71 17 -140 33 -165 40 -344 73 -466 87 -27 3
-56 8 -64 10 -8 2 -55 7 -105 11 -49 3 -93 8 -96 10 -4 2 -89 7 -190 10 -101
3 -203 7 -227 8 -24 1 -44 1 -45 0z"/>
</g>
</svg>
